<svg width="524" height="449" viewBox="0 0 524 449" fill="none" xmlns="http://www.w3.org/2000/svg">
<g clip-path="url(#clip0)">
<path d="M377.076 266.364L381.198 263.422C381.59 263.135 381.976 262.828 382.373 262.541C373.532 260.783 365.475 255.587 359.537 247.812C353.598 240.037 350.133 230.151 349.716 219.789C349.413 212.662 350.578 205.554 353.115 199.05C355.478 192.965 358.966 187.553 363.333 183.196C367.701 178.839 372.842 175.642 378.395 173.832L378.19 192.593L387.102 172.173C387.139 172.167 387.176 172.167 387.213 172.173C392.377 171.895 397.539 172.795 402.402 174.823C407.266 176.85 411.736 179.966 415.558 183.992C419.38 188.017 422.479 192.874 424.678 198.285C426.877 203.696 428.133 209.554 428.374 215.526C428.407 216.394 428.374 217.249 428.374 218.078C431.475 213.988 434.289 209.604 436.154 204.8C439.929 195.068 440.017 184.048 439.703 170.655C439.107 144.11 438.119 117.367 436.828 90.7006C427.522 89.5056 418.891 84.5129 412.483 76.6195C406.076 68.726 402.312 58.4491 401.869 47.6352C401.814 46.2377 401.831 44.8658 401.869 43.5003C401.869 43.1621 401.869 42.8175 401.913 42.4793C401.991 41.1584 402.096 39.8503 402.272 38.5614C402.272 38.3444 402.338 38.1402 402.371 37.9233C402.533 36.83 402.726 35.7495 402.951 34.6817C403.039 34.2861 403.122 33.8841 403.216 33.4885C403.492 32.3271 403.768 31.1849 404.148 30.0555C404.264 29.679 404.402 29.3153 404.524 28.9452C404.805 28.1157 405.109 27.2989 405.429 26.4885C405.6 26.061 405.765 25.6398 405.947 25.2123C405.991 25.1038 406.03 24.9953 406.08 24.8869C410.235 15.3973 417.134 7.89124 425.578 3.67348C434.022 -0.544269 443.478 -1.20705 452.301 1.80036L452.036 26.2141L460.865 6.05012C468.108 10.8437 473.835 18.1892 477.21 27.0139C480.586 35.8386 481.433 45.6801 479.628 55.101H479.672C479.611 55.4264 479.523 55.7391 479.456 56.0581C479.335 56.6579 479.203 57.2514 479.059 57.8448C478.872 58.6041 478.662 59.3507 478.447 60.0973C478.281 60.6524 478.121 61.2204 477.939 61.7691C477.674 62.5731 477.387 63.358 477.067 64.1429C476.89 64.6023 476.73 65.0681 476.515 65.5212C476.011 66.6953 475.459 67.8438 474.86 68.9669C474.656 69.3561 474.424 69.7262 474.209 70.1155C473.789 70.8684 473.364 71.615 472.906 72.3425C472.625 72.7891 472.321 73.2167 472.023 73.6569C471.593 74.295 471.151 74.9332 470.693 75.5138C470.368 75.9414 470.037 76.3625 469.695 76.79C469.215 77.3771 468.718 77.945 468.205 78.5065C467.868 78.883 467.526 79.2595 467.173 79.6168C466.593 80.2102 465.986 80.7782 465.374 81.3333C465.065 81.6141 464.767 81.9076 464.447 82.1756C463.516 82.9754 462.554 83.7262 461.561 84.4281C461.373 84.5557 461.174 84.6642 461.009 84.7918C460.181 85.3597 459.353 85.8893 458.465 86.3871C458.095 86.5976 457.709 86.7827 457.328 86.9805C456.616 87.3506 455.899 87.7079 455.165 88.0334C454.74 88.2184 454.304 88.3907 453.868 88.563C453.145 88.8501 452.411 89.1118 451.661 89.3479C451.219 89.4882 450.783 89.6286 450.336 89.7499C449.531 89.9732 448.709 90.1582 447.881 90.3178C447.826 90.3178 447.776 90.3178 447.721 90.3561C448.265 101.604 448.749 112.858 449.172 124.118C451.519 118.546 454.826 113.588 458.89 109.547C462.954 105.506 467.688 102.467 472.804 100.618C477.919 98.7689 483.308 98.1477 488.638 98.7926C493.969 99.4376 499.129 101.335 503.803 104.369L496.845 126.415L511.159 110.52C518.822 118.642 523.386 129.946 523.851 141.953C524.033 146.166 523.697 150.388 522.852 154.492C521.054 163.372 516.989 171.423 511.185 177.6C505.381 183.776 498.106 187.793 490.304 189.13C482.501 190.466 474.531 189.061 467.428 185.095C460.325 181.129 454.416 174.787 450.469 166.89C450.469 168.032 450.541 169.181 450.568 170.323C450.828 182.141 451.153 196.842 446.06 209.975C442.611 218.876 437.054 226.106 431.563 232.582C427.993 236.8 424.29 240.878 420.494 244.828C416.761 250.624 411.888 255.309 406.278 258.496C400.043 264.051 393.586 269.254 386.909 274.104L382.853 277.128C379.106 279.815 375.266 282.571 371.497 285.424C372.159 285.347 372.816 285.264 373.489 285.232C381.831 284.78 390.082 287.407 397.05 292.732C404.017 298.058 409.34 305.807 412.249 314.859L387.649 338.016L414.688 330.761C414.681 338.459 412.986 346.029 409.762 352.764C406.539 359.499 401.891 365.179 396.254 369.274C390.617 373.369 384.174 375.744 377.527 376.179C370.881 376.613 364.248 375.093 358.247 371.759C358.854 372.639 359.467 373.514 360.074 374.388C361.282 376.13 362.485 377.859 363.661 379.575C379.664 403.013 384.122 425.27 376.193 442.237L366.558 436.213C374.283 419.699 362.695 398.565 355.063 387.424C353.91 385.74 352.729 384.042 351.537 382.319C341.312 367.643 329.723 350.976 330.016 330.55C330.43 299.794 356.305 281.244 377.076 266.364Z" fill="#451616" fill-opacity="0.26"/>
<path d="M251.358 449C390.179 449 502.716 443.001 502.716 435.6C502.716 428.199 390.179 422.2 251.358 422.2C112.537 422.2 0 428.199 0 435.6C0 443.001 112.537 449 251.358 449Z" fill="#3F3D56"/>
<path d="M454.425 430.604C456.081 427.088 454.205 422.78 452.064 419.641C449.923 416.502 447.312 413.26 447.368 409.246C447.445 403.503 452.715 400.115 456.931 397.071C460.053 394.81 462.933 392.131 465.512 389.089C466.594 387.918 467.489 386.536 468.155 385.005C469.021 382.759 468.999 380.206 468.944 377.743C468.76 369.55 468.411 361.365 467.896 353.189" stroke="#3F3D56" stroke-width="4" stroke-miterlimit="10"/>
<path d="M475.903 352.755C475.841 351.256 475.455 349.799 474.78 348.517C474.105 347.235 473.163 346.169 472.04 345.417L470.307 349.386L470.357 344.587C469.172 344.177 467.919 344.101 466.703 344.367C465.487 344.634 464.345 345.233 463.371 346.116C462.398 346.999 461.622 348.14 461.109 349.442C460.596 350.743 460.361 352.169 460.424 353.597C460.52 355.967 461.427 358.195 462.944 359.791C463.695 360.581 464.574 361.193 465.529 361.591C466.485 361.989 467.499 362.165 468.514 362.11C469.528 362.054 470.523 361.769 471.442 361.269C472.361 360.768 473.186 360.064 473.87 359.195C474.553 358.327 475.082 357.311 475.426 356.206C475.77 355.101 475.923 353.928 475.875 352.755H475.903Z" fill="#57B793"/>
<path d="M462.09 413.375C461.279 415.196 459.952 416.64 458.33 417.464C456.707 418.289 454.89 418.443 453.181 417.902C451.472 417.361 449.976 416.157 448.943 414.492C447.911 412.827 447.405 410.802 447.509 408.757C447.614 406.712 448.324 404.771 449.519 403.258C450.715 401.746 452.323 400.755 454.076 400.451C455.828 400.147 457.617 400.549 459.144 401.589C460.67 402.629 461.841 404.245 462.46 406.164L457.626 410.714L462.946 409.285C462.946 410.707 462.653 412.11 462.09 413.375V413.375Z" fill="#57B793"/>
<path d="M458.266 395.961C457.25 396.018 456.234 395.842 455.277 395.443C454.32 395.044 453.44 394.431 452.689 393.639C451.937 392.846 451.328 391.889 450.897 390.824C450.466 389.758 450.221 388.605 450.176 387.43C450.115 386.028 450.344 384.63 450.844 383.352C451.308 382.155 451.993 381.09 452.851 380.233C453.709 379.375 454.719 378.745 455.81 378.388L455.772 382.082L457.527 378.062C459.579 377.951 461.586 378.788 463.105 380.388C464.624 381.988 465.532 384.22 465.628 386.594C465.723 388.967 465 391.288 463.616 393.044C462.233 394.801 460.302 395.85 458.25 395.961H458.266Z" fill="#57B793"/>
<path d="M477.067 381.47C475.018 381.581 473.015 380.747 471.498 379.151C469.98 377.555 469.074 375.327 468.977 372.957C468.881 370.588 469.602 368.272 470.982 366.517C472.363 364.763 474.29 363.715 476.339 363.603C477.787 363.52 479.226 363.914 480.488 364.739L479.12 369.078L481.934 365.951C483.444 367.547 484.345 369.771 484.44 372.134C484.475 372.962 484.408 373.791 484.241 374.597C483.855 376.49 482.945 378.184 481.651 379.425C480.356 380.665 478.747 381.383 477.067 381.47V381.47Z" fill="#57B793"/>
<path opacity="0.1" d="M474.86 355.116C473.072 355.346 471.333 355.99 469.54 356.118C467.747 356.246 465.777 355.748 464.64 354.133C464.027 353.266 463.724 352.168 463.205 351.224C462.716 350.341 462.047 349.611 461.257 349.099C460.79 350.228 460.533 351.459 460.503 352.71C460.474 353.962 460.672 355.207 461.086 356.364C461.499 357.521 462.118 358.565 462.903 359.428C463.687 360.291 464.62 360.953 465.64 361.372C466.661 361.791 467.746 361.958 468.825 361.861C469.905 361.763 470.955 361.405 471.907 360.808C472.859 360.212 473.692 359.391 474.352 358.398C475.012 357.405 475.484 356.263 475.737 355.046C475.439 355.059 475.147 355.084 474.86 355.116Z" fill="black"/>
<path opacity="0.1" d="M477.067 381.47C475.731 381.548 474.401 381.224 473.206 380.53C472.011 379.835 470.992 378.794 470.25 377.507C469.507 376.221 469.066 374.734 468.97 373.192C468.873 371.649 469.125 370.104 469.7 368.708C470.315 369.188 470.843 369.801 471.256 370.514C471.808 371.477 472.139 372.587 472.79 373.474C473.993 375.114 476.057 375.65 477.928 375.548C479.798 375.446 481.597 374.84 483.446 374.642C483.7 374.642 483.965 374.591 484.224 374.585C483.841 376.476 482.935 378.171 481.643 379.414C480.352 380.656 478.745 381.378 477.067 381.47Z" fill="black"/>
<path opacity="0.1" d="M458.266 395.961C457.25 396.018 456.234 395.842 455.277 395.443C454.32 395.044 453.44 394.431 452.689 393.639C451.937 392.846 451.328 391.889 450.897 390.824C450.466 389.758 450.221 388.605 450.176 387.43C450.115 386.028 450.344 384.63 450.844 383.352C451.486 383.838 452.047 384.454 452.5 385.171C453.101 386.153 453.476 387.283 454.155 388.189C455.463 389.874 457.659 390.467 459.64 390.41C461.621 390.352 463.404 389.816 465.313 389.65C464.842 391.412 463.912 392.963 462.651 394.092C461.391 395.222 459.859 395.874 458.266 395.961Z" fill="black"/>
<path opacity="0.1" d="M462.09 413.375C461.674 414.447 461.078 415.414 460.339 416.22C459.599 417.026 458.729 417.656 457.779 418.073C456.828 418.491 455.816 418.688 454.8 418.653C453.784 418.618 452.784 418.352 451.857 417.87C450.929 417.388 450.093 416.7 449.396 415.845C448.699 414.989 448.154 413.983 447.793 412.884C447.432 411.786 447.262 410.615 447.292 409.44C447.322 408.265 447.552 407.109 447.969 406.037C448.605 406.525 449.177 407.116 449.669 407.791C450.403 408.832 450.888 410.006 451.744 410.982C453.327 412.775 455.882 413.534 458.156 413.585C459.47 413.605 460.784 413.535 462.09 413.375V413.375Z" fill="black"/>
<path d="M442.749 426.552C442.749 426.552 448.858 426.335 450.701 424.816C452.544 423.297 460.082 421.485 460.562 423.923C461.042 426.36 469.75 436.047 462.846 436.085C455.943 436.123 446.81 434.809 444.973 433.532C443.135 432.256 442.749 426.552 442.749 426.552Z" fill="#656380"/>
<path opacity="0.2" d="M462.968 435.236C456.07 435.3 446.932 433.96 445.094 432.684C443.698 431.701 443.135 428.16 442.953 426.526H442.749C442.749 426.526 443.135 432.224 444.956 433.545C446.777 434.866 455.926 436.149 462.83 436.098C464.822 436.098 465.512 435.255 465.473 434.043C465.214 434.764 464.452 435.223 462.968 435.236Z" fill="black"/>
<path d="M107.281 410.918C103.275 402.342 107.833 391.839 113.042 384.194C118.251 376.55 124.63 368.599 124.492 358.855C124.294 344.855 111.447 336.592 101.183 329.171C93.5669 323.663 86.5411 317.133 80.2524 309.715C77.7306 306.735 75.286 303.558 73.8181 299.754C71.6991 294.28 71.7543 288.058 71.8922 282.06C72.3337 262.066 73.1872 242.111 74.4527 222.193" stroke="#3F3D56" stroke-width="4" stroke-miterlimit="10"/>
<path d="M54.9346 221.102C55.0857 217.449 56.028 213.899 57.6748 210.777C59.3217 207.656 61.6204 205.062 64.3598 203.235L68.5868 212.903L68.4599 201.2C72.3001 199.891 76.4005 200.028 80.1691 201.59C83.9377 203.152 87.1795 206.058 89.4264 209.89C91.6733 213.721 92.809 218.279 92.6695 222.906C92.5301 227.532 91.1227 231.988 88.6505 235.629C86.1784 239.27 82.7695 241.909 78.9159 243.164C75.0624 244.418 70.9637 244.224 67.2117 242.61C63.4597 240.996 60.2484 238.044 58.0417 234.181C55.8349 230.319 54.7469 225.745 54.9346 221.121V221.102Z" fill="#57B793"/>
<path d="M88.6072 368.861C90.5055 373.139 93.5726 376.572 97.3319 378.627C101.091 380.682 105.332 381.244 109.396 380.226C113.46 379.207 117.119 376.665 119.805 372.995C122.491 369.324 124.054 364.73 124.25 359.927C124.382 356.908 123.962 353.89 123.019 351.071C121.641 346.935 119.206 343.382 116.039 340.885C112.872 338.387 109.123 337.063 105.29 337.089C101.457 337.115 97.7215 338.488 94.5799 341.028C91.4383 343.568 89.0394 347.153 87.7022 351.307L99.4948 362.397L86.5213 358.906C86.5159 362.37 87.2313 365.784 88.6072 368.861Z" fill="#57B793"/>
<path d="M97.9275 326.478C102.557 326.723 107.103 324.991 110.699 321.611C114.296 318.231 116.692 313.44 117.432 308.15C118.171 302.859 117.203 297.439 114.71 292.921C112.218 288.403 108.375 285.103 103.915 283.649L104.014 292.64L99.7651 282.858H99.7154C94.7123 282.588 89.8214 284.627 86.1186 288.527C82.4158 292.427 80.2044 297.868 79.971 303.653C79.7375 309.439 81.5011 315.094 84.8738 319.376C88.2465 323.658 92.952 326.215 97.9551 326.485L97.9275 326.478Z" fill="#57B793"/>
<path d="M52.0926 291.21C55.0158 291.375 57.932 290.752 60.6112 289.39C63.2903 288.028 65.659 285.964 67.5304 283.363C69.4017 280.761 70.7244 277.691 71.3941 274.397C72.0638 271.103 72.0621 267.673 71.3892 264.38C70.7163 261.086 69.3906 258.019 67.5168 255.419C65.6429 252.82 63.2722 250.759 60.5917 249.401C57.9112 248.043 54.9944 247.423 52.0714 247.592C49.1484 247.76 46.2993 248.712 43.749 250.372L47.0599 260.945L40.2228 253.307C38.395 255.23 36.9132 257.552 35.8622 260.138C34.8111 262.724 34.2115 265.525 34.0975 268.379C34.0098 270.399 34.1715 272.423 34.5776 274.39C35.5161 279.016 37.7344 283.161 40.8954 286.197C44.0565 289.233 47.9878 290.993 52.0926 291.21V291.21Z" fill="#57B793"/>
<path opacity="0.1" d="M57.473 226.922C61.8324 227.477 66.0704 229.04 70.4409 229.353C74.8114 229.665 79.6178 228.459 82.3825 224.529C83.8724 222.41 84.6174 219.73 85.8756 217.42C87.0677 215.268 88.7019 213.49 90.6323 212.245C91.8344 215.012 92.5138 218.043 92.6255 221.137C92.7371 224.231 92.2784 227.317 91.2798 230.19C90.2812 233.063 88.7655 235.658 86.8334 237.802C84.9013 239.946 82.597 241.591 80.0733 242.626C77.5496 243.662 74.8642 244.065 72.1955 243.808C69.5268 243.552 66.9358 242.642 64.5944 241.14C62.253 239.637 60.2147 237.576 58.6149 235.092C57.0151 232.609 55.8904 229.761 55.3153 226.737C56.0492 226.775 56.7666 226.832 57.473 226.922Z" fill="black"/>
<path opacity="0.1" d="M52.0926 291.21C55.3464 291.384 58.5837 290.582 61.4903 288.882C64.3969 287.182 66.8742 284.642 68.6816 281.509C70.4891 278.375 71.5653 274.755 71.8058 270.999C72.0464 267.242 71.4431 263.478 70.0546 260.071C68.5554 261.237 67.2661 262.728 66.258 264.461C64.9116 266.809 64.1004 269.521 62.5166 271.678C59.5754 275.673 54.5537 276.981 49.9956 276.745C45.4375 276.508 41.0394 275.003 36.5034 274.524C35.8743 274.46 35.2342 274.409 34.5996 274.39C35.5371 279.012 37.7521 283.154 40.9087 286.19C44.0654 289.225 47.9917 290.987 52.0926 291.21V291.21Z" fill="black"/>
<path opacity="0.1" d="M97.9275 326.478C101.15 326.653 104.357 325.87 107.243 324.205C110.129 322.539 112.598 320.047 114.414 316.964C116.23 313.882 117.333 310.313 117.618 306.597C117.902 302.882 117.358 299.144 116.039 295.741C114.484 296.935 113.131 298.449 112.049 300.208C110.581 302.6 109.665 305.357 107.949 307.565C104.765 311.668 99.4119 313.116 94.5834 312.982C89.9094 312.867 85.4065 311.54 80.7601 311.125C81.9105 315.414 84.1757 319.189 87.2475 321.936C90.3193 324.683 94.0485 326.269 97.9275 326.478V326.478Z" fill="black"/>
<path opacity="0.1" d="M88.6072 368.861C90.5055 373.139 93.5726 376.572 97.3319 378.627C101.091 380.682 105.332 381.244 109.396 380.226C113.46 379.207 117.119 376.665 119.805 372.995C122.491 369.324 124.054 364.73 124.25 359.927C124.382 356.908 123.962 353.89 123.019 351.071C121.466 352.251 120.071 353.689 118.881 355.339C117.087 357.892 115.901 360.738 113.826 363.099C109.963 367.476 103.733 369.288 98.1869 369.48C94.9859 369.493 91.787 369.286 88.6072 368.861V368.861Z" fill="black"/>
<path d="M237.96 423.667L165.118 440.896L163.463 440.705L99.4506 433.239V339.438L177.81 324.124L234.649 331.781L234.665 332.195L234.671 332.4L237.96 423.667Z" fill="#0062F5"/>
<path opacity="0.1" d="M237.96 423.667L165.118 440.896L163.463 440.705V344.543L234.665 332.196L237.96 423.667Z" fill="black"/>
<path opacity="0.05" d="M234.671 332.4L234.649 332.419L163.463 344.543L99.4506 339.438L177.81 324.124L234.649 331.781L234.665 332.196L234.671 332.4Z" fill="black"/>
<path d="M317.975 427.496L245.133 444.725L243.478 444.533L179.466 437.067V343.267L257.825 327.952L314.664 335.609L314.68 336.024L314.686 336.228L317.975 427.496Z" fill="#3F3D56"/>
<path opacity="0.1" d="M317.975 427.496L245.133 444.725L243.478 444.533V348.371L314.68 336.024L317.975 427.496Z" fill="black"/>
<path opacity="0.05" d="M314.686 336.228L314.664 336.247L243.478 348.371L179.466 343.267L257.825 327.952L314.664 335.609L314.68 336.024L314.686 336.228Z" fill="black"/>
<path d="M267.758 335.609L194.917 352.838L193.261 352.647L129.249 345.181V251.38L207.609 236.066L264.447 243.723L264.464 244.138L264.469 244.342L267.758 335.609Z" fill="#E18758"/>
<path opacity="0.1" d="M267.758 335.609L194.917 352.838L193.261 352.647V256.485L264.464 244.138L267.758 335.609Z" fill="black"/>
<path opacity="0.05" d="M264.469 244.342L264.447 244.361L193.261 256.485L129.249 251.38L207.609 236.066L264.447 243.723L264.464 244.138L264.469 244.342Z" fill="black"/>
<path d="M309.145 339.54L271.13 348.537L270.264 348.435L236.856 344.536V295.581L277.752 287.586L307.418 291.587L307.429 291.804V291.906L309.145 339.54Z" fill="#ED3811"/>
<path opacity="0.1" d="M309.146 339.54L271.13 348.537L270.264 348.435V298.249L307.429 291.804L309.146 339.54Z" fill="black"/>
<path opacity="0.05" d="M307.429 291.906L307.418 291.919L270.264 298.249L236.856 295.581L277.752 287.586L307.418 291.587L307.429 291.804V291.906Z" fill="black"/>
<path d="M207.057 244.463L169.042 253.454L168.175 253.358L134.768 249.459V200.504L175.664 192.509L205.33 196.51L205.341 196.727V196.829L207.057 244.463Z" fill="#3F3D56"/>
<path opacity="0.1" d="M207.057 244.463L169.042 253.454L168.175 253.358V203.171L205.341 196.727L207.057 244.463Z" fill="black"/>
<path opacity="0.05" d="M205.341 196.829L205.33 196.842L168.175 203.171L134.768 200.504L175.664 192.509L205.33 196.51L205.341 196.727V196.829Z" fill="black"/>
<path d="M273.828 242.549L235.813 251.54L234.947 251.444L201.539 247.545V198.59L242.435 190.594L272.101 194.595L272.112 194.812V194.914L273.828 242.549Z" fill="#0062F5"/>
<path opacity="0.1" d="M273.828 242.549L235.813 251.54L234.947 251.444V201.257L272.112 194.812L273.828 242.549Z" fill="black"/>
<path opacity="0.05" d="M272.112 194.914L272.101 194.927L234.947 201.257L201.539 198.59L242.435 190.594L272.101 194.595L272.112 194.812V194.914Z" fill="black"/>
<path d="M293.694 193.415L255.679 202.406L254.812 202.31L221.405 198.411V149.456L262.301 141.461L291.967 145.462L291.978 145.679V145.781L293.694 193.415Z" fill="#3F3D56"/>
<path opacity="0.1" d="M293.694 193.415L255.679 202.406L254.812 202.31V152.123L291.978 145.679L293.694 193.415Z" fill="black"/>
<path opacity="0.05" d="M291.978 145.781L291.967 145.793L254.812 152.123L221.405 149.456L262.301 141.461L291.967 145.462L291.978 145.679V145.781Z" fill="black"/>
<path d="M319.586 93.3351C319.183 97.4827 316.446 100.826 315.431 104.821C313.908 110.851 316.534 117.328 320.154 122.05C323.072 125.802 326.604 128.847 330.546 131.009C334.489 133.171 338.763 134.407 343.122 134.646C344.402 134.773 345.692 134.611 346.918 134.167C348.01 133.653 348.994 132.874 349.804 131.883C352.519 128.724 353.981 124.353 354.561 119.944C355.14 115.535 354.92 111.049 354.693 106.601C354.693 105.681 354.547 104.768 354.263 103.908C353.893 103.091 353.385 102.368 352.767 101.784C350.81 99.7037 348.653 97.8903 346.339 96.3788C345.345 95.7407 344.28 95.1026 343.646 93.9987C343.21 93.1196 342.927 92.1508 342.812 91.1464L342.101 86.9605C341.975 85.7535 341.618 84.594 341.058 83.5658C339.805 81.6132 337.405 81.3452 335.302 81.2495L327.577 80.8985C325.176 80.79 322.02 79.9924 319.674 80.5412C317.467 81.0453 318.212 83.3807 318.609 85.4992C319.184 88.0615 319.512 90.6894 319.586 93.3351V93.3351Z" fill="#FFC0C6"/>
<path opacity="0.1" d="M319.586 93.3351C319.183 97.4827 316.446 100.826 315.431 104.821C313.908 110.851 316.534 117.328 320.154 122.05C323.072 125.802 326.604 128.847 330.546 131.009C334.489 133.171 338.763 134.407 343.122 134.646C344.402 134.773 345.692 134.611 346.918 134.167C348.01 133.653 348.994 132.874 349.804 131.883C352.519 128.724 353.981 124.353 354.561 119.944C355.14 115.535 354.92 111.049 354.693 106.601C354.693 105.681 354.547 104.768 354.263 103.908C353.893 103.091 353.385 102.368 352.767 101.784C350.81 99.7037 348.653 97.8903 346.339 96.3788C345.345 95.7407 344.28 95.1026 343.646 93.9987C343.21 93.1196 342.927 92.1508 342.812 91.1464L342.101 86.9605C341.975 85.7535 341.618 84.594 341.058 83.5658C339.805 81.6132 337.405 81.3452 335.302 81.2495L327.577 80.8985C325.176 80.79 322.02 79.9924 319.674 80.5412C317.467 81.0453 318.212 83.3807 318.609 85.4992C319.184 88.0615 319.512 90.6894 319.586 93.3351V93.3351Z" fill="black"/>
<path d="M368.649 280.146L365.371 321.699C364.516 332.598 363.644 343.541 361.967 354.299C361.415 358.007 360.708 361.695 359.903 365.351C357.662 375.503 354.412 385.426 353.364 395.833C353.33 396.133 353.303 396.471 353.275 396.746C353.06 399.043 352.872 401.366 352.172 403.51C351.62 405.099 350.842 406.547 350.273 408.117C349.17 411.256 348.993 414.728 348.855 418.129C344.877 415.532 340.521 413.802 336.003 413.024C333.796 412.647 331.395 412.386 329.933 410.471C328.277 408.391 328.471 405.207 328.746 402.412C329.615 393.734 330.479 385.06 331.34 376.39C331.627 372.66 332.181 368.963 332.996 365.339C333.294 364.132 333.652 362.946 334.016 361.759C334.519 360.125 335.026 358.492 335.407 356.813C335.935 354.117 336.3 351.382 336.5 348.627C337.388 339.897 338.459 331.187 339.397 322.465L339.446 322.005C340.854 308.784 341.924 295.498 341.615 282.181C341.571 280.209 341.499 278.238 341.389 276.26C341.234 273.395 341.008 271.876 343.044 270.083C345.312 268.105 348.298 266.72 350.891 265.425C352.287 264.723 367.661 258.406 367.998 259.797C368.712 262.751 369.083 265.803 369.102 268.87C369.133 272.636 368.982 276.4 368.649 280.146V280.146Z" fill="#605D82"/>
<path opacity="0.1" d="M361.967 354.299C361.415 358.007 360.708 361.695 359.903 365.351C357.662 375.503 354.412 385.426 353.364 395.833C353.33 396.133 353.303 396.471 353.275 396.746C346.422 385.426 340.649 373.251 333.961 361.81C334.463 360.176 334.971 358.543 335.352 356.865C335.901 354.153 336.284 351.4 336.5 348.627C337.388 339.897 338.459 331.187 339.397 322.465L339.446 322.005C339.834 323.856 340.389 325.655 341.102 327.371C345.594 337.926 356.266 343.26 361.486 353.361C361.659 353.676 361.819 353.989 361.967 354.299Z" fill="black"/>
<path d="M306.353 261.507C306.579 269.968 307.749 278.359 308.919 286.718L311.331 303.947C312.65 313.391 314.029 323.02 317.892 331.474C320.784 337.804 324.944 343.203 328.713 348.875C337.973 362.824 344.932 378.63 353.711 392.987C356.266 397.161 359.914 401.678 364.268 400.804C367.126 400.236 369.201 397.48 371.441 395.361C374.09 392.86 377.28 391.028 379.366 387.889C381.452 384.75 381.86 379.543 379.035 377.309C378.069 376.55 376.893 376.263 375.801 375.778C371.425 373.864 368.588 368.912 366.79 363.909C364.991 358.906 363.892 353.54 361.492 348.888C356.272 338.787 345.594 333.453 341.102 322.892C338.586 316.983 338.343 310.13 338.155 303.577L337.664 286.788C337.609 284.951 337.57 283.043 338.216 281.364C339.932 276.898 345.119 276.477 349.324 275.909C354.093 275.265 358.712 273.58 362.938 270.944C365.36 269.432 367.722 267.505 369.008 264.697C370.189 262.145 370.349 259.139 370.487 256.242L371.944 225.811C372.071 223.195 372.181 220.483 371.392 218.033C369.389 211.869 362.656 209.852 356.967 210.146C346.383 210.695 336.616 215.959 326.616 219.52C324.139 220.4 321.65 221.191 319.095 221.785C316.888 222.302 314.129 222.091 312.009 222.921C308.213 224.401 308.307 234.011 307.771 237.993C306.667 245.763 306.192 253.635 306.353 261.507V261.507Z" fill="#605D82"/>
<path d="M362.833 402.093C363.766 403.184 364.069 404.78 364.312 406.285C365.661 414.643 366.363 423.123 366.409 431.624C366.348 432.418 366.484 433.214 366.801 433.922C367.065 434.341 367.421 434.671 367.833 434.879C370.531 436.365 373.66 434.292 375.911 432.014C380.078 427.796 383.604 422.129 383.841 415.729C383.902 414.083 383.742 412.418 383.99 410.79C384.354 408.378 385.574 406.279 386.644 404.173C388.476 400.584 389.957 396.77 391.059 392.802C391.467 391.309 391.743 389.433 390.728 388.393C390.372 388.066 389.966 387.822 389.53 387.672L377.335 382.44C376.276 381.987 373.649 389.791 373.235 390.646C372.214 392.732 371.199 393.913 369.151 394.398C367.104 394.883 364.577 394.181 362.623 395.387C359.312 397.422 360.962 399.917 362.833 402.093Z" fill="#535070"/>
<path d="M344.027 406.911C343.801 406.39 343.485 405.927 343.1 405.552C342.536 405.137 341.894 404.885 341.229 404.818C338.911 404.358 336.163 404.059 334.557 406.056C333.056 407.925 333.316 410.969 332.063 413.075C331.666 413.713 331.125 414.287 330.783 414.989C330.357 416.064 330.168 417.243 330.231 418.422C330.165 421.67 330.098 424.931 330.297 428.172C330.457 430.891 330.849 433.743 332.322 435.874C334.684 439.294 338.944 439.786 342.719 440.003L345.781 440.188C346.624 440.302 347.477 440.21 348.287 439.92C348.789 439.653 349.239 439.272 349.61 438.799C349.982 438.327 350.268 437.773 350.45 437.17C352.045 432.588 349.523 427.655 347.967 423.061C346.173 417.771 346.493 411.907 344.027 406.911Z" fill="#535070"/>
<path d="M318.703 69.9487C318.664 69.4842 318.723 69.0157 318.874 68.5831C319.321 67.6706 320.491 67.945 321.374 68.1747C324.922 69.2085 328.664 68.2705 332.322 68.5129C335.981 68.7554 340.098 70.8675 340.832 75.0152C343.486 72.8431 345.773 70.1266 347.58 67.0006C348.596 65.2458 349.479 63.2358 349.341 61.1301C349.142 58.0927 346.94 55.8211 344.926 53.894L338.856 48.1511C338.056 47.303 337.134 46.6247 336.13 46.1475C334.728 45.5923 333.194 45.8603 331.715 45.8603C327.301 45.8603 322.566 43.5313 318.632 45.8603C316.976 46.8366 315.745 48.5148 314.553 50.1484L309.129 57.5759C308.718 58.0493 308.418 58.6355 308.257 59.2796C308.103 60.1857 308.505 61.0791 308.649 61.9915C308.903 63.6506 308.285 65.4245 308.759 67.0198C309.548 69.6615 312.33 70.038 314.029 71.5567C314.658 72.1182 315.652 74.0389 316.408 74.0134C317.738 73.9815 318.665 71.1738 318.703 69.9487Z" fill="#3F3D56"/>
<path d="M327.908 91.8547C337.508 91.8547 345.29 82.8555 345.29 71.7545C345.29 60.6535 337.508 51.6543 327.908 51.6543C318.308 51.6543 310.525 60.6535 310.525 71.7545C310.525 82.8555 318.308 91.8547 327.908 91.8547Z" fill="#FFC0C6"/>
<path d="M331.98 115.739C331.391 113.791 330.282 112.109 328.814 110.937C327.345 109.765 325.592 109.163 323.808 109.217C323.296 109.33 322.766 109.252 322.296 108.994C322.029 108.758 321.815 108.452 321.672 108.101C320.618 105.901 319.769 103.578 319.139 101.171C318.863 100.105 318.482 98.8483 317.55 98.5739C316.799 98.3506 316.032 98.9121 315.53 99.5949C315.085 100.328 314.602 101.029 314.084 101.694C311.877 103.953 308.014 101.892 305.702 103.966C305.321 104.304 305.007 104.738 304.598 105.051C304.201 105.331 303.772 105.545 303.324 105.689C298.835 107.377 294.435 109.365 290.146 111.642C291.691 122.388 293.269 133.338 296.889 143.388C298.611 148.174 300.559 152.864 301.939 157.796C304.996 168.727 305.128 180.423 305.167 191.915C305.167 199.777 305.167 207.804 302.959 215.244C302.463 216.929 301.856 218.601 301.718 220.349C301.58 222.098 302.032 224.076 303.274 225.122C303.993 225.67 304.817 226.006 305.674 226.098C309.488 226.737 313.328 225.575 317.081 224.567C327.141 221.874 337.405 220.33 347.641 218.824L364.803 216.272C366.034 216.172 367.239 215.811 368.357 215.206C371.497 213.222 371.795 207.759 369.841 204.288C368.909 202.623 367.59 201.257 366.801 199.496C366.011 197.735 365.951 195.259 367.303 194.04C370.062 191.552 369.234 186.938 369.367 182.905C369.734 171.624 369.685 160.351 369.218 149.086C369.077 146.75 369.044 144.407 369.118 142.067C369.311 138.098 370.161 134.212 371.011 130.351L376.226 106.614C374.863 104.125 372.253 102.543 369.786 101.828C367.319 101.114 364.742 100.903 362.309 100.029C357.342 98.2421 352.883 93.7116 347.68 94.1327C347.285 94.1408 346.897 94.2498 346.543 94.4518C345.373 95.2239 345.555 97.1765 345.483 98.7334C345.318 102.186 343.122 105.063 340.705 107.086C338.288 109.109 335.517 110.577 333.293 112.88C332.907 113.217 332.59 113.647 332.363 114.141C332.136 114.635 332.005 115.18 331.98 115.739V115.739Z" fill="#3F3D56"/>
<path d="M263.106 138.257C261.955 139.123 260.731 139.852 259.453 140.433C258.239 140.988 256.942 141.429 255.949 142.399C255.457 142.892 255.045 143.482 254.73 144.141C254.142 145.347 253.844 146.714 253.869 148.099C253.893 149.484 254.239 150.836 254.869 152.013C255.499 153.191 256.391 154.152 257.452 154.795C258.512 155.439 259.703 155.741 260.899 155.671C262.494 155.575 264 154.829 265.463 154.095L277.724 147.925C279.799 146.885 282.04 145.672 283.022 143.311C283.134 143.09 283.177 142.831 283.143 142.577C283.048 142.299 282.867 142.072 282.636 141.939C279.872 139.86 277.456 137.224 275.5 134.154C274.998 133.363 274.397 131.5 273.668 131.021C271.075 129.356 265.187 136.7 263.106 138.257Z" fill="#FFC0C6"/>
<path d="M394.177 133.248L398.696 139.221C399.667 140.497 400.639 141.773 401.522 143.152C403.694 146.612 405.437 150.407 406.698 154.427C407.68 157.407 408.497 160.585 408.155 163.75C407.925 165.372 407.546 166.962 407.023 168.491C406.195 171.43 405.168 174.289 403.95 177.041C402.933 179.129 401.783 181.128 400.512 183.02C397.011 188.384 393.181 193.449 389.05 198.175C387.505 199.943 386.843 202.808 386.186 205.194C384.945 209.604 381.992 213.043 379.139 216.297C378.222 217.419 377.207 218.428 376.11 219.309C374.467 220.535 372.546 221.166 370.592 221.121C369.739 221.127 368.895 220.925 368.114 220.528C366.16 219.456 365.167 216.846 364.963 214.357C364.783 212.096 365.11 209.819 365.912 207.747C368.506 201.104 375.166 198.226 379.873 193.377C382.632 190.537 384.746 186.964 386.832 183.435C388.245 181.229 389.425 178.837 390.347 176.307C391.396 173.059 390.987 169.218 391.909 165.925C392.295 164.528 393.012 163.271 393.404 161.886C393.796 160.502 393.928 158.862 393.194 157.668C392.645 156.906 391.942 156.31 391.147 155.933C388.14 154.172 384.774 151.9 384.2 148.052C383.97 145.921 384.451 143.769 385.546 142.035C386.635 140.323 387.909 138.779 389.337 137.441C390.645 136.075 392.858 134.563 394.177 133.248Z" fill="#FFC0C6"/>
<path d="M260.204 146.591C259.409 144.728 258.41 142.826 256.799 141.901C256.015 141.51 255.17 141.308 254.316 141.308C253.462 141.308 252.617 141.51 251.833 141.901C250.271 142.682 248.808 143.703 247.484 144.938L243.588 148.263C242.705 148.933 241.924 149.767 241.276 150.732C240.658 151.903 240.249 153.205 240.073 154.561C239.521 157.668 239.074 160.865 239.461 164.011C240.079 169.116 242.727 173.532 245.641 177.411C247.462 179.823 249.714 182.261 252.484 182.369C253.681 182.414 255.011 181.865 255.508 180.608C255.681 180.109 255.773 179.577 255.778 179.038C256.076 173.372 254.321 167.84 252.28 162.678C251.728 161.274 251.132 159.819 251.176 158.281C251.159 158.02 251.217 157.76 251.341 157.541C251.517 157.329 251.751 157.195 252.004 157.164C254.801 156.526 259.624 159.04 261.583 155.448C262.853 153.074 261.109 148.703 260.204 146.591Z" fill="#FFC0C6"/>
<path d="M317.787 63.6251C317.753 63.1602 317.813 62.6924 317.964 62.2595C318.411 61.3407 319.581 61.6214 320.464 61.8512C324.012 62.8849 327.753 61.9469 331.412 62.1894C335.07 62.4318 339.182 64.5439 339.921 68.6916C342.573 66.516 344.86 63.8002 346.67 60.6771C347.685 58.9159 348.568 56.9059 348.43 54.8001C348.232 51.7628 346.024 49.4911 344.016 47.5705L337.945 41.8275C337.148 40.9795 336.227 40.3012 335.225 39.8239C333.818 39.2688 332.289 39.5368 330.81 39.5368C326.396 39.5368 321.661 37.2077 317.726 39.5368C316.071 40.5131 314.84 42.1913 313.648 43.8248L308.218 51.2523C307.81 51.7268 307.512 52.3128 307.352 52.956C307.198 53.8621 307.6 54.7555 307.744 55.668C307.998 57.327 307.38 59.1009 307.854 60.6898C308.643 63.3379 311.425 63.7144 313.124 65.2331C313.753 65.7946 314.747 67.7153 315.503 67.6898C316.81 67.6579 317.738 64.8502 317.787 63.6251Z" fill="#3F3D56"/>
<path d="M280.87 118.706C280.169 119.232 279.553 119.895 279.049 120.665C278.414 121.782 278.282 123.217 277.735 124.366C276.565 126.88 273.823 127.78 272.118 129.841C271.841 130.123 271.648 130.498 271.566 130.913C271.555 131.474 271.718 132.021 272.024 132.457L280.268 147.44C283.027 147.72 285.643 145.73 288.391 145.998C289.412 146.093 290.466 146.502 291.448 146.151C292.15 145.789 292.809 145.324 293.407 144.766C295.063 143.566 297.226 143.426 298.6 141.85C299.974 140.274 300.09 137.958 300.073 135.807C300.098 133.941 299.933 132.078 299.582 130.256C298.368 124.513 294.566 120.084 292.182 114.992C291.018 112.51 290.389 111.062 287.933 112.765C285.478 114.469 283.193 116.741 280.87 118.706Z" fill="#3F3D56"/>
<path d="M380.977 111.132C382.526 112.295 383.924 113.709 385.127 115.33C386.379 117.2 387.091 119.497 388.3 121.412C389.508 123.326 391.059 124.704 392.383 126.414C394.397 129.005 395.76 132.157 397.096 135.29C393.827 140.209 390.264 144.857 386.435 149.201C386.007 149.782 385.444 150.207 384.812 150.426C384.384 150.479 383.951 150.409 383.552 150.22C383.153 150.032 382.801 149.732 382.528 149.348C381.932 148.633 381.512 147.74 380.944 146.993C379.605 145.396 377.82 144.399 375.906 144.179C374.007 143.965 372.097 143.933 370.194 144.083C369.777 144.141 369.354 144.059 368.975 143.847C368.693 143.623 368.465 143.32 368.313 142.967C366.105 138.576 366.795 133.063 367.584 128.048L369.389 116.562C369.652 114.369 370.158 112.224 370.895 110.181C371.579 108.49 373.102 105.619 374.99 106.129C376.877 106.639 379.382 109.804 380.977 111.132Z" fill="#3F3D56"/>
<path d="M223.612 195.329L185.596 204.32L184.73 204.224L151.322 200.326V151.37L192.218 143.375L221.885 147.376L221.896 147.593V147.695L223.612 195.329Z" fill="#C4C4C4"/>
<path opacity="0.1" d="M223.612 195.329L185.597 204.32L184.73 204.224V154.038L221.896 147.593L223.612 195.329Z" fill="black"/>
<path opacity="0.05" d="M221.896 147.695L221.885 147.708L184.73 154.038L151.322 151.37L192.218 143.375L221.885 147.376L221.896 147.593V147.695Z" fill="black"/>
<path d="M243.478 146.833L205.462 155.831L204.596 155.729L171.188 151.83V102.875L212.084 94.8793L241.751 98.8802L241.762 99.0971V99.1992L243.478 146.833Z" fill="#3F3D56"/>
<path opacity="0.1" d="M243.478 146.833L205.462 155.831L204.596 155.729V105.542L241.762 99.0971L243.478 146.833Z" fill="black"/>
<path opacity="0.05" d="M241.762 99.1992L241.751 99.212L204.596 105.542L171.188 102.875L212.084 94.8793L241.751 98.8802L241.762 99.0971V99.1992Z" fill="black"/>
</g>
<defs>
<clipPath id="clip0">
<rect width="524" height="449" fill="white"/>
</clipPath>
</defs>
</svg>
